<svg version="1.1" id="Layer_1" xmlns="http://www.w3.org/2000/svg" xmlns:xlink="http://www.w3.org/1999/xlink" x="0px" y="0px"
	 width="100%" viewBox="0 0 365 271" enable-background="new 0 0 365 271" xml:space="preserve">
<path fill="#FAFAFA" opacity="1.000000" stroke="none" 
	d="
M227.000000,272.000000 
	C151.333359,272.000000 76.166718,272.000000 1.000061,272.000000 
	C1.000040,181.666733 1.000040,91.333450 1.000020,1.000133 
	C122.666565,1.000089 244.333130,1.000089 365.999756,1.000044 
	C365.999847,91.333199 365.999847,181.666397 365.999939,271.999817 
	C319.833344,272.000000 273.666656,272.000000 227.000000,272.000000 
M46.067329,258.429901 
	C47.730381,260.676086 49.393436,262.922302 51.502235,265.770569 
	C58.577145,260.486969 65.379486,255.406937 71.427971,250.889893 
	C65.440811,239.301636 59.412785,228.755920 54.456860,217.728363 
	C49.441547,206.568695 46.472420,194.721588 45.939274,181.854370 
	C50.538742,181.854370 54.382244,182.154633 58.131859,181.692764 
	C59.458252,181.529373 61.528301,179.559036 61.594704,178.324158 
	C61.943119,171.844589 61.704605,165.335678 61.783539,158.838333 
	C61.816574,156.119171 60.803009,154.885300 57.958450,154.985168 
	C53.841824,155.129715 49.716343,155.022171 45.223839,155.022171 
	C48.204926,126.226112 58.529797,101.339249 77.460426,78.496750 
	C80.526337,82.035118 82.795418,84.931290 85.398270,87.487625 
	C86.172462,88.248001 88.514267,88.720116 89.068542,88.195213 
	C94.942001,82.633057 100.599426,76.842766 106.619148,70.811943 
	C103.760216,68.050598 101.466820,65.634712 98.959404,63.466305 
	C96.055077,60.954647 96.769272,59.080990 99.613556,57.257629 
	C104.092720,54.386204 108.430984,51.277683 113.022865,48.602440 
	C130.787079,38.252934 149.879013,32.071278 171.113159,30.409826 
	C171.113159,35.632057 171.113159,40.522240 171.113159,45.666664 
	C179.223114,45.666664 186.691284,45.540447 194.151566,45.727909 
	C197.195267,45.804394 197.888748,44.428547 197.825500,41.825035 
	C197.739594,38.288986 197.804108,34.749287 197.804108,30.810246 
	C225.817871,34.212284 249.507248,44.556110 270.490173,62.035892 
	C267.460175,65.422188 264.936188,68.242989 261.534454,72.044731 
	C265.816528,75.888664 270.124756,79.524086 274.166382,83.435020 
	C281.384918,90.420120 280.217316,91.195953 287.324005,83.535904 
	C287.864441,82.953369 288.581360,82.534554 289.706390,81.657570 
	C306.719391,103.231934 316.195129,127.395996 319.118805,155.139679 
	C314.684601,155.139679 311.107880,155.139679 307.426910,155.139679 
	C307.426910,164.306259 307.426910,172.856659 307.426910,181.991089 
	C311.378571,181.991089 314.957794,181.991089 319.951111,181.991089 
	C316.765686,193.912796 314.632446,205.236832 310.648468,215.867294 
	C306.669403,226.484833 300.837555,236.408020 295.684479,246.907608 
	C302.335999,251.524277 309.231781,256.310455 315.860718,260.911469 
	C316.621857,260.503113 316.813538,260.459534 316.907715,260.339478 
	C317.316681,259.818115 317.722046,259.290710 318.084564,258.736603 
	C339.605164,225.841797 349.121887,190.016693 345.115295,150.662323 
	C342.891235,128.816925 336.573669,108.354340 326.080780,89.175568 
	C310.588379,60.858791 288.719116,38.936661 260.252808,23.485191 
	C228.138504,6.053603 193.942032,-0.049814 158.054077,5.395916 
	C120.525253,11.090639 88.340767,27.771034 62.437008,55.908138 
	C30.955832,90.103516 16.515421,130.450241 18.880507,176.822342 
	C20.382147,206.265015 29.662737,233.168274 46.067329,258.429901 
M189.260193,139.871094 
	C185.218521,141.120895 181.166321,142.337845 177.137115,143.626617 
	C164.584427,147.641693 157.158997,159.702560 159.096359,172.881409 
	C160.867462,184.929245 172.158844,194.088318 185.066406,193.947205 
	C197.859375,193.807312 208.137924,184.319382 210.043167,171.151901 
	C210.360596,168.958038 211.247543,166.653442 212.487564,164.815842 
	C226.065613,144.694458 239.786758,124.669708 253.413727,104.581184 
	C255.773911,101.101845 257.876343,97.447639 260.097839,93.874207 
	C259.744476,93.519325 259.391144,93.164436 259.037781,92.809555 
	C235.987564,108.365471 212.937332,123.921394 189.260193,139.871094 
z"/>
<path fill="#9AA3B3" opacity="1.000000" stroke="none" 
	d="
M45.855263,258.136688 
	C29.662737,233.168274 20.382147,206.265015 18.880507,176.822342 
	C16.515421,130.450241 30.955832,90.103516 62.437008,55.908138 
	C88.340767,27.771034 120.525253,11.090639 158.054077,5.395916 
	C193.942032,-0.049814 228.138504,6.053603 260.252808,23.485191 
	C288.719116,38.936661 310.588379,60.858791 326.080780,89.175568 
	C336.573669,108.354340 342.891235,128.816925 345.115295,150.662323 
	C349.121887,190.016693 339.605164,225.841797 318.084564,258.736603 
	C317.722046,259.290710 317.316681,259.818115 316.907715,260.339478 
	C316.813538,260.459534 316.621857,260.503113 315.860718,260.911469 
	C309.231781,256.310455 302.335999,251.524277 295.684479,246.907608 
	C300.837555,236.408020 306.669403,226.484833 310.648468,215.867294 
	C314.632446,205.236832 316.765686,193.912796 319.951111,181.991089 
	C314.957794,181.991089 311.378571,181.991089 307.426910,181.991089 
	C307.426910,172.856659 307.426910,164.306259 307.426910,155.139679 
	C311.107880,155.139679 314.684601,155.139679 319.118805,155.139679 
	C316.195129,127.395996 306.719391,103.231934 289.706390,81.657570 
	C288.581360,82.534554 287.864441,82.953369 287.324005,83.535904 
	C280.217316,91.195953 281.384918,90.420120 274.166382,83.435020 
	C270.124756,79.524086 265.816528,75.888664 261.534454,72.044731 
	C264.936188,68.242989 267.460175,65.422188 270.490173,62.035892 
	C249.507248,44.556110 225.817871,34.212284 197.804108,30.810246 
	C197.804108,34.749287 197.739594,38.288986 197.825500,41.825035 
	C197.888748,44.428547 197.195267,45.804394 194.151566,45.727909 
	C186.691284,45.540447 179.223114,45.666664 171.113159,45.666664 
	C171.113159,40.522240 171.113159,35.632057 171.113159,30.409826 
	C149.879013,32.071278 130.787079,38.252934 113.022865,48.602440 
	C108.430984,51.277683 104.092720,54.386204 99.613556,57.257629 
	C96.769272,59.080990 96.055077,60.954647 98.959404,63.466305 
	C101.466820,65.634712 103.760216,68.050598 106.619148,70.811943 
	C100.599426,76.842766 94.942001,82.633057 89.068542,88.195213 
	C88.514267,88.720116 86.172462,88.248001 85.398270,87.487625 
	C82.795418,84.931290 80.526337,82.035118 77.460426,78.496750 
	C58.529797,101.339249 48.204926,126.226112 45.223839,155.022171 
	C49.716343,155.022171 53.841824,155.129715 57.958450,154.985168 
	C60.803009,154.885300 61.816574,156.119171 61.783539,158.838333 
	C61.704605,165.335678 61.943119,171.844589 61.594704,178.324158 
	C61.528301,179.559036 59.458252,181.529373 58.131859,181.692764 
	C54.382244,182.154633 50.538742,181.854370 45.939274,181.854370 
	C46.472420,194.721588 49.441547,206.568695 54.456860,217.728363 
	C59.412785,228.755920 65.440811,239.301636 71.427971,250.889893 
	C65.379486,255.406937 58.577145,260.486969 51.502235,265.770569 
	C49.393436,262.922302 47.730381,260.676086 45.855263,258.136688 
z"/>
<path fill="#9BA3B3" opacity="1.000000" stroke="none" 
	d="
M189.573639,139.674194 
	C212.937332,123.921394 235.987564,108.365471 259.037781,92.809555 
	C259.391144,93.164436 259.744476,93.519325 260.097839,93.874207 
	C257.876343,97.447639 255.773911,101.101845 253.413727,104.581184 
	C239.786758,124.669708 226.065613,144.694458 212.487564,164.815842 
	C211.247543,166.653442 210.360596,168.958038 210.043167,171.151901 
	C208.137924,184.319382 197.859375,193.807312 185.066406,193.947205 
	C172.158844,194.088318 160.867462,184.929245 159.096359,172.881409 
	C157.158997,159.702560 164.584427,147.641693 177.137115,143.626617 
	C181.166321,142.337845 185.218521,141.120895 189.573639,139.674194 
z"/>
</svg>